<svg width="26" height="25" viewBox="0 0 26 25" fill="none" xmlns="http://www.w3.org/2000/svg">
<path d="M11.6817 0C12.131 0.0643066 12.5835 0.111279 13.029 0.195898C15.1936 0.607031 17.0464 1.61221 18.5885 3.17886C19.9914 4.60405 20.9188 6.29736 21.317 8.26108C21.8175 10.7295 21.4722 13.0835 20.2351 15.2809C19.8389 15.9848 19.3377 16.6298 18.8847 17.3017C18.8419 17.3178 18.7992 17.3339 18.7564 17.35C18.8369 17.3915 18.9335 17.4163 18.9953 17.4768C21.0444 19.4878 23.0918 21.5007 25.1333 23.5194C25.2792 23.6636 25.3788 23.8543 25.5 24.0234V24.3652C25.3936 24.6819 25.1756 24.8872 24.8652 25H24.5234C24.3267 24.8615 24.1065 24.7469 23.9368 24.5808C21.8896 22.5771 19.85 20.5657 17.8082 18.5565C17.7566 18.5059 17.7025 18.4579 17.6398 18.3995C17.5692 18.4477 17.5014 18.4896 17.4383 18.5377C16.0811 19.5722 14.5595 20.2468 12.8818 20.5327C10.3745 20.9599 7.98838 20.5855 5.77173 19.3094C3.46553 17.9817 1.86572 16.06 1.00972 13.5335C0.755859 12.7841 0.60127 12.0118 0.542236 11.2213C0.537598 11.1585 0.514551 11.0972 0.5 11.0352V9.66797C0.514941 9.59766 0.533643 9.52793 0.544189 9.45698C0.605029 9.04746 0.641992 8.63296 0.727295 8.22866C1.13555 6.2939 2.04116 4.61934 3.42188 3.20737C4.97202 1.62222 6.83569 0.606836 9.01855 0.194238C9.44736 0.113135 9.88232 0.063916 10.3145 0H11.6817ZM2.11445 10.2985C2.13369 10.6609 2.13267 10.9635 2.16826 11.2618C2.39365 13.1501 3.11221 14.8245 4.42432 16.21C6.72021 18.6342 9.55664 19.5454 12.807 18.9131C15.6566 18.3587 17.7862 16.7189 19.0484 14.0819C20.3208 11.424 20.2434 8.7374 18.8187 6.16904C17.3584 3.53643 15.0546 2.03594 12.0669 1.66851C9.70781 1.37832 7.53818 1.95239 5.63687 3.39321C3.33711 5.13604 2.19321 7.48369 2.11445 10.2985Z" fill="white"/>
</svg>
